<svg version="1.2" xmlns="http://www.w3.org/2000/svg" viewBox="0 0 18 18" width="18" height="18"><defs><clipPath clipPathUnits="userSpaceOnUse" id="cp1"><path d="m-97-640h375v1660h-375z"/></clipPath></defs><style>.a{fill:#00aeab}</style><g clip-path="url(#cp1)"><path class="a" d="m0.9 7.2c0.5 0 0.9-0.4 0.9-0.9v-3.6c0-0.5 0.4-0.9 0.9-0.9h3.6c0.5 0 0.9-0.4 0.9-0.9 0-0.5-0.4-0.9-0.9-0.9h-3.6c-1.5 0-2.7 1.2-2.7 2.7v3.6c0 0.5 0.4 0.9 0.9 0.9zm14.4-7.2h-3.6c-0.5 0-0.9 0.4-0.9 0.9 0 0.5 0.4 0.9 0.9 0.9h3.6c0.5 0 0.9 0.4 0.9 0.9v3.6c0 0.5 0.4 0.9 0.9 0.9 0.5 0 0.9-0.4 0.9-0.9v-3.6c0-1.5-1.2-2.7-2.7-2.7zm1.8 10.8c-0.5 0-0.9 0.4-0.9 0.9v3.6c0 0.5-0.4 0.9-0.9 0.9h-3.6c-0.5 0-0.9 0.4-0.9 0.9 0 0.5 0.4 0.9 0.9 0.9h3.6c1.5 0 2.7-1.2 2.7-2.7v-3.6c0-0.5-0.4-0.9-0.9-0.9zm-10.8 5.4h-3.6c-0.5 0-0.9-0.4-0.9-0.9v-3.6c0-0.5-0.4-0.9-0.9-0.9-0.5 0-0.9 0.4-0.9 0.9v3.6c0 1.5 1.2 2.7 2.7 2.7h3.6c0.5 0 0.9-0.4 0.9-0.9 0-0.5-0.4-0.9-0.9-0.9z"/><path class="a" d="m4 6c0-1.1 0.9-2 2-2h6c1.1 0 2 0.9 2 2v6c0 1.1-0.9 2-2 2h-6c-1.1 0-2-0.9-2-2z"/></g></svg>