<svg version="1.2" xmlns="http://www.w3.org/2000/svg" viewBox="0 0 221 216" width="221" height="216"><defs><clipPath clipPathUnits="userSpaceOnUse" id="cp1"><path d="m-78-367h375v812h-375z"/></clipPath><linearGradient id="P" gradientUnits="userSpaceOnUse"/><linearGradient id="g1" x1="116" y1="11.7" x2="116" y2="216" href="#P"><stop stop-color="#4cabaa" stop-opacity="1"/><stop offset="1" stop-color="#4cabaa" stop-opacity="0"/></linearGradient><linearGradient id="g2" x1="115.4" y1="34.3" x2="115.4" y2="197.8" href="#P"><stop stop-color="#4cabaa" stop-opacity="1"/><stop offset="1" stop-color="#4cabaa" stop-opacity="0"/></linearGradient></defs><style>.a{opacity:.5;fill:url(#g1)}.b{fill:url(#g2)}.c{fill:none;stroke:#305655;stroke-miterlimit:100;stroke-width:2}.d{fill:none;stroke:#305655;stroke-miterlimit:100}.e{fill:#1caf00}.f{fill:none;stroke:#fff;stroke-linecap:round;stroke-miterlimit:100;stroke-width:5}.g{fill:#00aeab}.h{fill:none;stroke:#215756;stroke-miterlimit:100;stroke-width:.5}.i{fill:#215756}.j{opacity:.3;fill:#00aeab}.k{fill:none;stroke:#4cabaa;stroke-miterlimit:100}</style><g clip-path="url(#cp1)"><g style="opacity:.2"><path class="a" d="m75.6 25.5c-15 4.9-30.4 10-42.9 19.6-12.6 9.6-22 24.8-20.5 40.5 0.9 10.3 6.4 19.7 8.1 29.9 2.5 14.2-2.5 28.5-5.7 42.6-3.3 14.1-4.5 30.2 4.2 41.8 10 13.2 29.2 15.5 45.7 13.1 16.4-2.4 27.7-4.8 44.3-3.5 12.5 0.9 29.2 2.3 41.4 5 12.3 2.6 26.2 2.5 35.9-5.5 7.8-6.5 11.3-16.9 12.5-27 1.3-10.1 0.7-20.4 2.4-30.4 1.9-11.5 6.8-22.2 11-33 4.3-10.8 8.2-22.1 8-33.8-0.2-11.6-5.1-23.7-14.9-29.9-10.5-6.6-24.3-5.5-34.9-11.7-10.1-6-15.6-17.4-25.1-24.3-10.2-7.5-24.1-8.6-36.6-5.8-12.4 2.8-21.7 6.3-32.9 12.4z"/><path class="b" d="m83 45.4c-12 3.9-24.3 8-34.3 15.7-10.1 7.7-17.6 19.8-16.5 32.3 0.8 8.3 5.2 15.8 6.6 24 1.9 11.4-2.1 22.8-4.7 34.1-2.6 11.3-3.5 24.1 3.5 33.4 7.9 10.6 23.3 12.4 36.5 10.5 13.2-2 22.2-3.8 35.5-2.8 10 0.7 23.4 1.9 33.2 4 9.8 2.1 21 2 28.7-4.4 6.3-5.2 9-13.5 10-21.6 1-8.1 0.6-16.3 1.9-24.3 1.6-9.2 5.5-17.8 8.9-26.5 3.4-8.6 6.5-17.6 6.4-26.9-0.2-9.4-4.1-19.1-12-24-8.4-5.3-19.4-4.4-27.9-9.4-8.1-4.7-12.5-13.9-20.1-19.4-8.2-6-19.4-6.9-29.3-4.6-10 2.2-17.4 4.9-26.4 9.9z"/></g><path class="c" d="m10.7 195.4h188.6"/><path class="d" d="m103.6 201.1h65.6"/><path class="d" d="m42.1 201.1h21.2"/><path class="e" d="m75 120c0-19.3 15.7-35 35-35 19.3 0 35 15.7 35 35 0 19.3-15.7 35-35 35-19.3 0-35-15.7-35-35z"/><path class="f" d="m98 120.9l8.3 9.1 17.7-20"/><path class="g" d="m175.5 173c-2.2 0-4-4.7-4-10.5 0-5.8 1.8-10.5 4-10.5 2.2 0 4 4.7 4 10.5 0 5.8-1.8 10.5-4 10.5z"/><path class="h" d="m175.5 152v31.2"/><path class="g" d="m187.2 168.7c-2.3 4.5-5.6 7.4-7.3 6.5-1.7-0.9-1.3-5.2 1-9.7 2.3-4.5 5.6-7.4 7.3-6.5 1.7 0.9 1.3 5.2-1 9.7z"/><path class="h" d="m188.2 159l-12.4 24.1"/><path class="g" d="m163.9 168.7c2.3 4.5 5.5 7.4 7.2 6.5 1.8-0.9 1.3-5.2-1-9.7-2.3-4.5-5.6-7.4-7.3-6.5-1.7 0.9-1.2 5.2 1.1 9.7z"/><path class="h" d="m162.8 159l12.4 24.1"/><path class="i" d="m170.7 196h9.6c0.5 0 0.9-0.3 0.9-0.8l1.3-11.1c0.1-0.5-0.3-1-0.9-1h-12.2c-0.6 0-1 0.5-0.9 1l1.3 11.1c0.1 0.5 0.5 0.8 0.9 0.8z"/><path class="g" d="m168.2 185.3h14.6c0.4 0 0.6-0.3 0.7-0.6l0.2-1.9c0.1-0.3-0.2-0.7-0.6-0.7h-15.2c-0.4 0-0.7 0.4-0.6 0.7l0.3 1.9c0 0.3 0.3 0.6 0.6 0.6z"/><path class="j" d="m67 5.5c-2.4 0-4.5 1.4-5.7 3.3-0.8-0.6-1.8-1-3-1-2.6 0-4.8 2.1-4.8 4.8v1.6h6.9 2.8 10.3v-2.1c0-3.6-2.9-6.6-6.5-6.6z"/><path class="j" d="m203.8 64.9c-3.1 0-5.9 1.7-7.4 4.2-1-0.8-2.4-1.3-3.8-1.3-3.5 0-6.4 2.8-6.4 6.3v2.1h9.1 3.6 13.4v-2.8c0-4.7-3.8-8.5-8.5-8.5z"/><path class="j" d="m164.2 1c-3 0-5.6 1.6-7.1 4.1-1-0.8-2.3-1.3-3.7-1.3-3.4 0-6.1 2.7-6.1 6.1v2h8.7 3.5 12.9v-2.7c0-4.5-3.7-8.2-8.2-8.2z"/><path class="j" d="m21.4 58.4c-3.8 0-7.1 2.1-8.9 5.2-1.3-1-3-1.6-4.8-1.6-4.2 0-7.7 3.4-7.7 7.7v2.5h11 4.5 16.3v-3.4c0-5.7-4.6-10.4-10.4-10.4z"/><path class="d" d="m59.3 46.9c-1.1 0-1.9-0.8-1.9-1.9 0-1 0.8-1.9 1.9-1.9 1 0 1.9 0.9 1.9 1.9 0 1.1-0.9 1.9-1.9 1.9z"/><path class="d" d="m5.3 117.6c-1.1 0-1.9-0.8-1.9-1.9 0-1 0.8-1.9 1.9-1.9 1.1 0 1.9 0.9 1.9 1.9 0 1.1-0.8 1.9-1.9 1.9z"/><path class="d" d="m167.3 63.6c-1.1 0-1.9-0.8-1.9-1.9 0-1.1 0.8-1.9 1.9-1.9 1.1 0 1.9 0.8 1.9 1.9 0 1.1-0.8 1.9-1.9 1.9z"/><path class="d" d="m201.2 130.2c0 1.1-0.9 1.9-1.9 1.9-1.1 0-2-0.8-2-1.9 0-1.1 0.9-1.9 2-1.9 1 0 1.9 0.8 1.9 1.9z"/><path class="k" d="m35.9 85v4.8"/><path class="k" d="m38.3 87.4h-4.8"/><path class="k" d="m115 22.9v4.7"/><path class="k" d="m117.4 25.2h-4.8"/><path class="k" d="m15.9 28.4v4.7"/><path class="k" d="m18.3 30.7h-4.7"/><path class="k" d="m196.9 27.6v4.7"/><path class="k" d="m199.3 29.9h-4.7"/><path class="k" d="m167.3 99.1v4.8"/><path class="k" d="m169.7 101.5h-4.8"/></g></svg>