<svg version="1.2" xmlns="http://www.w3.org/2000/svg" viewBox="0 0 18 24" width="18" height="24"><defs><clipPath clipPathUnits="userSpaceOnUse" id="cp1"><path d="m-228-637h375v1660h-375z"/></clipPath></defs><style>.a{fill:#00aeab}</style><g clip-path="url(#cp1)"><path class="a" d="m4.5 8.3q0.9-1 1.8-1.5l-0.4-3.1h5.2l-0.4 3.1q0.9 0.5 1.8 1.5l0.5-3.7c0.4-2.3-0.6-4.6-1.9-4.6h-5.2c-1.3 0-2.3 2.3-1.9 4.6z"/><path fill-rule="evenodd" class="a" d="m17 15.7c0 2.9-1.5 5.6-3.9 7.2q-0.2 0.1-0.4 0.1h-8.4q-0.2 0-0.4-0.1c-2.4-1.6-3.9-4.3-3.9-7.2 0-4.8 3.8-8.7 8.5-8.7 4.7 0 8.5 3.9 8.5 8.7zm-9.4 2l-2.2-2.1 2.1-1.9c0.2-0.3 0.2-0.7 0-0.9-0.2-0.3-0.6-0.3-0.9-0.1l-1.6 1.6v-1.2c0-0.3-0.3-0.6-0.6-0.6-0.4 0-0.7 0.3-0.7 0.6v5.1c0 0.3 0.3 0.6 0.7 0.6 0.3 0 0.6-0.3 0.6-0.6v-1.3l1.8 1.7c0.2 0.3 0.6 0.3 0.9 0 0.2-0.2 0.2-0.6-0.1-0.9zm6.5-2c0-0.4-0.3-0.7-0.6-0.7h-1.5c-0.4 0-0.6 0.3-0.6 0.7 0 0.3 0.2 0.6 0.6 0.6h0.8c-0.2 0.7-0.6 1.2-1.5 1.2-1 0-1.8-0.8-1.8-1.8 0-1.1 0.8-1.9 1.8-1.9q0.6 0 1.1 0.3c0.3 0.2 0.6 0.1 0.8-0.2 0.2-0.3 0.2-0.7-0.1-0.9-0.5-0.3-1.1-0.5-1.8-0.5-1.7 0-3.1 1.4-3.1 3.2 0 1.7 1.4 3.1 3.1 3.1 1.7 0 2.8-1.3 2.8-3.1z"/></g></svg>