<svg version="1.2" xmlns="http://www.w3.org/2000/svg" viewBox="0 0 188 97" width="188" height="97"><defs><clipPath clipPathUnits="userSpaceOnUse" id="cp1"><path d="m-318-690h750v1624h-750z"/></clipPath></defs><style>.a{fill:#fff}</style><g clip-path="url(#cp1)"><path fill-rule="evenodd" class="a" d="m55.3 81.4q-1.9-0.4-3.7-0.8 0.5 0 1 0.1-0.5-0.2-1-0.3c8.9 0.8 18.2 2.6 28 5.6q1.3 0.4 2.6 0.8-0.2 0-0.4 0 0.2 0.1 0.4 0.1c-9.8-1-19.3-3.3-26.9-5.4zm53.5 10.5c-6.5 2.4-13.6 3.7-20.7 3.9q-1.5 0.1-3 0.1-1.5 0-3.1-0.1c-8.1-0.3-16.2-1.8-23.5-4.3-9.2-2.7-18.1-4.2-26.9-4.2-10.1 0-20.2 2-30.5 6.3q0 0 0-0.1 0 0 0 0.1c10.6-8 23.6-12 36.6-12 5.7 0 11.4 0.7 16.9 2.2 12.3 3.5 24.8 6.1 37.2 6.1q1.4 0 2.9 0 7 1.4 14.1 1.9 0 0.1-0.1 0.1 0.1 0 0.1 0zm-106-13.1h-1.7v-16.9c118.9-57.9 186.9-51.1 186.9-51.1l-32.4 61.7c-8.7 2.7-18.1 4-28.1 4-18.5 0-37.1-4.5-51.2-8.4h-0.1c-8-2.2-16.3-3.3-24.6-3.3-9.7 0-19.2 1.5-28.2 4.4-7.3 2.3-14.2 5.5-20.6 9.6zm92.5-39.1c0 2.7 2.2 5 5 5 2.8 0 5-2.3 5-5 0-2.8-2.2-5-5-5-2.8 0-5 2.2-5 5zm-16 5c0 2.7 2.3 5 5.1 5 2.8 0 5-2.3 5-5 0-2.8-2.2-5-5-5-2.8 0-5.1 2.2-5.1 5zm-15.3 5c0 2.7 2.3 4.9 5.1 4.9 2.8 0 5-2.2 5-4.9 0-2.8-2.2-5-5-5-2.8 0-5.1 2.2-5.1 5zm111.8 17.9c-15.2 14.7-36.5 20.8-57.8 20.8-12.8 0-25.7-2.3-37.3-6.2-12.9-3.8-25.4-6-37.8-6-14.2 0-28.4 2.8-42.9 8.9q0.1 0 0.1-0.1 0 0.1-0.1 0.1c15-11.3 33.2-16.8 51.5-16.8 8 0 16 1 23.7 3.1 17.3 4.8 34.9 8.6 52.2 8.6 16.5 0 32.7-3.4 48.4-12.6q-0.3 0.2-0.5 0.5 0.2-0.2 0.5-0.3zm-149.2-57.7c29.5-13.5 62.6-9.4 62.6-9.4l44.5 9.9c-46.1 6.7-85.4 25-85.4 25l-4.5-14.5c1.9-0.8 9.9-4.2 19-6.3 1.6-0.3 2.7-2 2.3-3.7-0.4-1.7-2.1-2.7-3.8-2.3-8.7 2-16.5 5.1-19.3 6.3l-1.5-5c-7.7 1.9-13.9 0-13.9 0z"/></g></svg>