<svg version="1.2" xmlns="http://www.w3.org/2000/svg" viewBox="0 0 20 20" width="20" height="20"><defs><clipPath clipPathUnits="userSpaceOnUse" id="cp1"><path d="m-335-639h375v1660h-375z"/></clipPath></defs><style>.a{fill:#00aeab}.b{fill:#fff}</style><g clip-path="url(#cp1)"><path class="a" d="m0 10c0-5.5 4.5-10 10-10 5.5 0 10 4.5 10 10 0 5.5-4.5 10-10 10-5.5 0-10-4.5-10-10z"/><path class="b" d="m13.5 5.4c0.3-0.1 0.7 0.2 0.7 0.6l0.1 2.1c0 0.3-0.2 0.5-0.5 0.5-0.3 0.1-0.6-0.2-0.6-0.4v-1l-6.1 6.7 1-0.1c0.3 0 0.5 0.2 0.5 0.5 0 0.3-0.2 0.6-0.5 0.6l-2.1 0.1c-0.3 0.1-0.7-0.2-0.7-0.6l-0.1-2.1c0-0.3 0.2-0.5 0.5-0.6 0.3 0 0.6 0.2 0.6 0.5v1l6.1-6.7-1 0.1c-0.3 0-0.5-0.3-0.5-0.5 0-0.3 0.2-0.6 0.5-0.6z"/></g></svg>